<svg width="300" height="80" viewBox="0 0 300 80" fill="none" xmlns="http://www.w3.org/2000/svg">
<path d="M80.5369 37H77.767L85.7784 15.1818H88.5057L96.517 37H93.7472L87.2273 18.6335H87.0568L80.5369 37ZM81.5597 28.4773H92.7244V30.821H81.5597V28.4773ZM98.7104 37H95.9405L103.952 15.1818H106.679L114.69 37H111.921L105.401 18.6335H105.23L98.7104 37ZM99.7331 28.4773H110.898V30.821H99.7331V28.4773ZM127.921 20.6364C127.793 19.5568 127.274 18.7188 126.365 18.1222C125.456 17.5256 124.341 17.2273 123.02 17.2273C122.054 17.2273 121.209 17.3835 120.485 17.696C119.767 18.0085 119.206 18.4382 118.801 18.9851C118.404 19.532 118.205 20.1534 118.205 20.8494C118.205 21.4318 118.343 21.9325 118.62 22.3516C118.904 22.7635 119.267 23.108 119.707 23.3849C120.147 23.6548 120.609 23.8786 121.092 24.0561C121.575 24.2266 122.019 24.3651 122.424 24.4716L124.639 25.0682C125.208 25.2173 125.84 25.4233 126.536 25.6861C127.239 25.9489 127.91 26.3075 128.549 26.7621C129.196 27.2095 129.728 27.7848 130.147 28.4879C130.566 29.1911 130.776 30.054 130.776 31.0767C130.776 32.2557 130.467 33.321 129.849 34.2727C129.238 35.2244 128.343 35.9808 127.164 36.5419C125.992 37.103 124.568 37.3835 122.892 37.3835C121.33 37.3835 119.977 37.1314 118.833 36.6271C117.697 36.1229 116.802 35.4197 116.149 34.5178C115.502 33.6158 115.137 32.5682 115.051 31.375H117.779C117.85 32.1989 118.127 32.8807 118.61 33.4205C119.1 33.9531 119.718 34.3509 120.463 34.6136C121.216 34.8693 122.026 34.9972 122.892 34.9972C123.901 34.9972 124.806 34.8338 125.609 34.5071C126.412 34.1733 127.047 33.7116 127.516 33.1222C127.985 32.5256 128.219 31.8295 128.219 31.0341C128.219 30.3097 128.017 29.7202 127.612 29.2656C127.207 28.8111 126.674 28.4418 126.014 28.1577C125.353 27.8736 124.639 27.625 123.872 27.4119L121.188 26.6449C119.483 26.1548 118.134 25.4553 117.139 24.5462C116.145 23.6371 115.648 22.4474 115.648 20.9773C115.648 19.7557 115.978 18.6903 116.639 17.7812C117.306 16.8651 118.201 16.1548 119.323 15.6506C120.453 15.1392 121.713 14.8835 123.105 14.8835C124.512 14.8835 125.762 15.1357 126.855 15.6399C127.949 16.1371 128.816 16.8189 129.455 17.6854C130.101 18.5518 130.442 19.5355 130.478 20.6364H127.921ZM133.915 37H131.145L139.156 15.1818H141.883L149.895 37H147.125L140.605 18.6335H140.435L133.915 37ZM134.937 28.4773H146.102V30.821H134.937V28.4773ZM168.494 15.1818V37H165.938L154.048 19.8693H153.835V37H151.193V15.1818H153.75L165.682 32.3551H165.895V15.1818H168.494ZM97.1989 50H94.5568C94.4006 49.2401 94.1271 48.5724 93.7365 47.9972C93.353 47.4219 92.8842 46.9389 92.3303 46.5483C91.7834 46.1506 91.1761 45.8523 90.5085 45.6534C89.8409 45.4545 89.1449 45.3551 88.4205 45.3551C87.0994 45.3551 85.9027 45.6889 84.8303 46.3565C83.7649 47.0241 82.9162 48.0078 82.2841 49.3075C81.6591 50.6072 81.3466 52.2017 81.3466 54.0909C81.3466 55.9801 81.6591 57.5746 82.2841 58.8743C82.9162 60.174 83.7649 61.1577 84.8303 61.8253C85.9027 62.4929 87.0994 62.8267 88.4205 62.8267C89.1449 62.8267 89.8409 62.7273 90.5085 62.5284C91.1761 62.3295 91.7834 62.0348 92.3303 61.6442C92.8842 61.2464 93.353 60.7599 93.7365 60.1847C94.1271 59.6023 94.4006 58.9347 94.5568 58.1818H97.1989C97 59.2969 96.6378 60.2947 96.1122 61.1754C95.5866 62.0561 94.9332 62.8054 94.152 63.4233C93.3707 64.0341 92.4936 64.4993 91.5206 64.8189C90.5547 65.1385 89.5213 65.2983 88.4205 65.2983C86.5597 65.2983 84.9048 64.8438 83.456 63.9347C82.0071 63.0256 80.8672 61.733 80.0362 60.0568C79.2053 58.3807 78.7898 56.392 78.7898 54.0909C78.7898 51.7898 79.2053 49.8011 80.0362 48.125C80.8672 46.4489 82.0071 45.1562 83.456 44.2472C84.9048 43.3381 86.5597 42.8835 88.4205 42.8835C89.5213 42.8835 90.5547 43.0433 91.5206 43.3629C92.4936 43.6825 93.3707 44.1513 94.152 44.7692C94.9332 45.38 95.5866 46.1257 96.1122 47.0064C96.6378 47.88 97 48.8778 97.1989 50ZM117.777 54.0909C117.777 56.392 117.362 58.3807 116.531 60.0568C115.7 61.733 114.56 63.0256 113.111 63.9347C111.662 64.8438 110.007 65.2983 108.147 65.2983C106.286 65.2983 104.631 64.8438 103.182 63.9347C101.733 63.0256 100.593 61.733 99.7624 60.0568C98.9314 58.3807 98.5159 56.392 98.5159 54.0909C98.5159 51.7898 98.9314 49.8011 99.7624 48.125C100.593 46.4489 101.733 45.1562 103.182 44.2472C104.631 43.3381 106.286 42.8835 108.147 42.8835C110.007 42.8835 111.662 43.3381 113.111 44.2472C114.56 45.1562 115.7 46.4489 116.531 48.125C117.362 49.8011 117.777 51.7898 117.777 54.0909ZM115.22 54.0909C115.22 52.2017 114.904 50.6072 114.272 49.3075C113.647 48.0078 112.799 47.0241 111.726 46.3565C110.661 45.6889 109.468 45.3551 108.147 45.3551C106.826 45.3551 105.629 45.6889 104.556 46.3565C103.491 47.0241 102.642 48.0078 102.01 49.3075C101.385 50.6072 101.073 52.2017 101.073 54.0909C101.073 55.9801 101.385 57.5746 102.01 58.8743C102.642 60.174 103.491 61.1577 104.556 61.8253C105.629 62.4929 106.826 62.8267 108.147 62.8267C109.468 62.8267 110.661 62.4929 111.726 61.8253C112.799 61.1577 113.647 60.174 114.272 58.8743C114.904 57.5746 115.22 55.9801 115.22 54.0909ZM120.12 43.1818H123.273L130.688 61.2926H130.944L138.358 43.1818H141.512V65H139.04V48.4233H138.827L132.009 65H129.623L122.804 48.4233H122.591V65H120.12V43.1818ZM144.709 65V43.1818H152.081C153.793 43.1818 155.192 43.4908 156.279 44.1087C157.373 44.7195 158.182 45.5469 158.708 46.5909C159.233 47.6349 159.496 48.7997 159.496 50.0852C159.496 51.3707 159.233 52.5391 158.708 53.5902C158.189 54.6413 157.387 55.4794 156.3 56.1044C155.213 56.7223 153.821 57.0312 152.124 57.0312H146.84V54.6875H152.039C153.211 54.6875 154.152 54.4851 154.862 54.0803C155.572 53.6754 156.087 53.1286 156.407 52.4396C156.733 51.7436 156.897 50.9588 156.897 50.0852C156.897 49.2116 156.733 48.4304 156.407 47.7415C156.087 47.0526 155.569 46.5128 154.851 46.1222C154.134 45.7244 153.182 45.5256 151.996 45.5256H147.351V65H144.709ZM180.061 54.0909C180.061 56.392 179.646 58.3807 178.815 60.0568C177.984 61.733 176.844 63.0256 175.395 63.9347C173.946 64.8438 172.291 65.2983 170.431 65.2983C168.57 65.2983 166.915 64.8438 165.466 63.9347C164.017 63.0256 162.877 61.733 162.046 60.0568C161.215 58.3807 160.8 56.392 160.8 54.0909C160.8 51.7898 161.215 49.8011 162.046 48.125C162.877 46.4489 164.017 45.1562 165.466 44.2472C166.915 43.3381 168.57 42.8835 170.431 42.8835C172.291 42.8835 173.946 43.3381 175.395 44.2472C176.844 45.1562 177.984 46.4489 178.815 48.125C179.646 49.8011 180.061 51.7898 180.061 54.0909ZM177.504 54.0909C177.504 52.2017 177.188 50.6072 176.556 49.3075C175.931 48.0078 175.083 47.0241 174.01 46.3565C172.945 45.6889 171.752 45.3551 170.431 45.3551C169.11 45.3551 167.913 45.6889 166.84 46.3565C165.775 47.0241 164.926 48.0078 164.294 49.3075C163.669 50.6072 163.357 52.2017 163.357 54.0909C163.357 55.9801 163.669 57.5746 164.294 58.8743C164.926 60.174 165.775 61.1577 166.84 61.8253C167.913 62.4929 169.11 62.8267 170.431 62.8267C171.752 62.8267 172.945 62.4929 174.01 61.8253C175.083 61.1577 175.931 60.174 176.556 58.8743C177.188 57.5746 177.504 55.9801 177.504 54.0909ZM199.705 43.1818V65H197.148L185.259 47.8693H185.046V65H182.404V43.1818H184.961L196.892 60.3551H197.105V43.1818H199.705ZM202.892 65V43.1818H216.059V45.5256H205.534V52.8977H215.377V55.2415H205.534V62.6562H216.23V65H202.892ZM236.022 43.1818V65H233.466L221.576 47.8693H221.363V65H218.721V43.1818H221.278L233.21 60.3551H233.423V43.1818H236.022ZM238.016 45.5256V43.1818H254.38V45.5256H247.519V65H244.877V45.5256H238.016ZM268.289 48.6364C268.161 47.5568 267.643 46.7188 266.734 46.1222C265.825 45.5256 264.71 45.2273 263.389 45.2273C262.423 45.2273 261.577 45.3835 260.853 45.696C260.136 46.0085 259.575 46.4382 259.17 46.9851C258.772 47.532 258.573 48.1534 258.573 48.8494C258.573 49.4318 258.712 49.9325 258.989 50.3516C259.273 50.7635 259.635 51.108 260.075 51.3849C260.516 51.6548 260.977 51.8786 261.46 52.0561C261.943 52.2266 262.387 52.3651 262.792 52.4716L265.008 53.0682C265.576 53.2173 266.208 53.4233 266.904 53.6861C267.607 53.9489 268.278 54.3075 268.918 54.7621C269.564 55.2095 270.097 55.7848 270.516 56.4879C270.935 57.1911 271.144 58.054 271.144 59.0767C271.144 60.2557 270.835 61.321 270.217 62.2727C269.607 63.2244 268.712 63.9808 267.533 64.5419C266.361 65.103 264.937 65.3835 263.261 65.3835C261.698 65.3835 260.345 65.1314 259.202 64.6271C258.065 64.1229 257.17 63.4197 256.517 62.5178C255.871 61.6158 255.505 60.5682 255.42 59.375H258.147C258.218 60.1989 258.495 60.8807 258.978 61.4205C259.468 61.9531 260.086 62.3509 260.832 62.6136C261.585 62.8693 262.394 62.9972 263.261 62.9972C264.269 62.9972 265.175 62.8338 265.977 62.5071C266.78 62.1733 267.416 61.7116 267.884 61.1222C268.353 60.5256 268.587 59.8295 268.587 59.0341C268.587 58.3097 268.385 57.7202 267.98 57.2656C267.575 56.8111 267.043 56.4418 266.382 56.1577C265.722 55.8736 265.008 55.625 264.241 55.4119L261.556 54.6449C259.852 54.1548 258.502 53.4553 257.508 52.5462C256.514 51.6371 256.016 50.4474 256.016 48.9773C256.016 47.7557 256.347 46.6903 257.007 45.7812C257.675 44.8651 258.57 44.1548 259.692 43.6506C260.821 43.1392 262.082 42.8835 263.474 42.8835C264.88 42.8835 266.13 43.1357 267.224 43.6399C268.318 44.1371 269.184 44.8189 269.823 45.6854C270.47 46.5518 270.81 47.5355 270.846 48.6364H268.289Z" fill="black"/>
<mask id="path-2-inside-1_24_17" fill="white">
<rect x="39.5147" y="10" width="18.4511" height="18.4511" rx="2" transform="rotate(45 39.5147 10)"/>
</mask>
<rect x="39.5147" y="10" width="18.4511" height="18.4511" rx="2" transform="rotate(45 39.5147 10)" stroke="black" stroke-width="10" mask="url(#path-2-inside-1_24_17)"/>
<mask id="path-3-inside-2_24_17" fill="white">
<rect x="55.9531" y="27.4678" width="18.4511" height="18.4511" rx="2" transform="rotate(45 55.9531 27.4678)"/>
</mask>
<rect x="55.9531" y="27.4678" width="18.4511" height="18.4511" rx="2" transform="rotate(45 55.9531 27.4678)" stroke="black" stroke-width="10" mask="url(#path-3-inside-2_24_17)"/>
<mask id="path-4-inside-3_24_17" fill="white">
<rect x="38.4853" y="43.9063" width="18.4511" height="18.4511" rx="2" transform="rotate(45 38.4853 43.9063)"/>
</mask>
<rect x="38.4853" y="43.9063" width="18.4511" height="18.4511" rx="2" transform="rotate(45 38.4853 43.9063)" stroke="black" stroke-width="10" mask="url(#path-4-inside-3_24_17)"/>
<mask id="path-5-inside-4_24_17" fill="white">
<rect x="22.0469" y="26.4385" width="18.4511" height="18.4511" rx="2" transform="rotate(45 22.0469 26.4385)"/>
</mask>
<rect x="22.0469" y="26.4385" width="18.4511" height="18.4511" rx="2" transform="rotate(45 22.0469 26.4385)" stroke="black" stroke-width="10" mask="url(#path-5-inside-4_24_17)"/>
</svg>
