<svg xmlns="http://www.w3.org/2000/svg" xmlns:xlink="http://www.w3.org/1999/xlink" width="204" height="210" viewBox="0 0 204 210">
    <defs>
        <linearGradient id="prefix__b" x1="97.987%" x2="2.013%" y1="0%" y2="100%">
            <stop offset="0%" stop-color="#00AFCB"/>
            <stop offset="48.862%" stop-color="#00D8E7"/>
            <stop offset="100%" stop-color="#00AFCB"/>
        </linearGradient>
        <path id="prefix__a" d="M204 208.235V.085C136.774.086 84.01.058 45.71 0 17.598 26.03 0 63.252 0 104.586c0 40.84 17.18 77.667 44.708 103.649 35.787-.1 88.884-.1 159.292 0z"/>
    </defs>
    <g fill="none" fill-rule="evenodd" transform="translate(0 .914)">
        <mask id="prefix__c" fill="#fff">
            <use xlink:href="#prefix__a"/>
        </mask>
        <use fill="url(#prefix__b)" xlink:href="#prefix__a"/>
        <g fill-rule="nonzero" mask="url(#prefix__c)">
            <g>
                <path fill="#211B3E" d="M133 150L92.625 150 64 46 133 46z" transform="translate(42 72.086)"/>
                <path fill="#211B3E" d="M123 150L103 150 103 69 123 69z" transform="translate(42 72.086)"/>
                <path fill="#211B3E" d="M104 132H122V134H104zM104 116H122V118H104zM104 99H122V101H104zM104 84H122V86H104zM50.993 150L10 150 10 46 71 46z" transform="translate(42 72.086)"/>
                <path fill="#211B3E" d="M41 150L21 150 21 69 41 69zM72 81c-4.411 0-8-3.589-8-8s3.589-8 8-8 8 3.589 8 8-3.589 8-8 8z" transform="translate(42 72.086)"/>
                <path fill="#00AFCB" d="M50 139V76.67C50 66.377 59.601 58 71.403 58h1.194C84.399 58 94 66.376 94 76.67V139H50z" transform="translate(42 72.086)"/>
                <path fill="#211B3E" d="M5.623 45.648L138.377 45.648 143.66 31.352 0.34 31.352z" transform="translate(42 72.086)"/>
                <path fill="#211B3E" d="M121 32L21 32 21 14 121 14z" transform="translate(42 72.086)"/>
                <path fill="#211B3E" d="M101 17L42 17 42 0 101 0z" transform="translate(42 72.086)"/>
            </g>
        </g>
        <g mask="url(#prefix__c)">
            <g>
                <path fill="#FFCA59" d="M39.37 179.985H.584c-.34-.02-.601-.3-.583-.628l3.97-66.156-2.43-5.926h-.114c-.165 0-.324-.062-.44-.174-.117-.112-.182-.265-.181-.423v-8.522c0-.33.278-.596.62-.596h4.526L8.52 71.007c-.004-.037-.004-.075 0-.113L6.939 65.75c-.332-.015-.593-.278-.594-.597v-5.317c0-.158.065-.31.181-.422.117-.113.275-.175.44-.175H9.45l1.829-18.946c0-.067.012-.133.037-.196l-.936-3.703h-.053c-.343 0-.62-.268-.62-.597v-4.39c0-.33.277-.598.62-.598h2.265l1.183-10.996c.002-.034.008-.069.018-.103l-.497-2.199c-.333-.012-.596-.274-.597-.594v-2.906c0-.329.277-.595.618-.595h1.872l.733-8.95v-.014l-.313-1.106c-.214-.099-.35-.306-.353-.535V.597c0-.33.278-.597.62-.597h8.233c.343 0 .621.267.621.597V2.81c0 .237-.144.45-.37.546l-.31 1.072v.036l.736 8.949h1.872c.343 0 .621.267.621.597v2.909c-.001.322-.27.586-.605.594l-.497 2.17c.016.043.026.087.03.132l1.182 10.996h2.265c.343 0 .62.267.62.597v4.39c0 .33-.277.597-.62.597h-.061l-.945 3.68c.025.054.04.11.046.168l1.837 19h2.482c.165 0 .324.063.44.175.117.112.182.264.181.422v5.325c0 .321-.265.585-.6.597l-1.588 5.098c.012.034.02.07.022.105l2.57 26.601h4.523c.164 0 .322.063.438.175.116.112.18.264.18.422v8.522c.001.158-.064.31-.18.422-.116.112-.274.175-.438.174h-.126l-2.407 5.857 3.97 66.185c.002.026.002.053 0 .08 0 .157-.065.31-.181.421-.116.112-.273.175-.438.175l-.01-.015z" transform="translate(158 33.086)"/>
                <path fill="#C7962E" d="M23.49 2.34V1.194h-6.992v1.15c.107.083.181.198.212.327l.353 1.247h5.855l.363-1.286c.036-.119.109-.225.209-.303v.013zM5.035 112.571L34.919 112.571 37.109 107.275 2.868 107.275zM37.933 106.086L37.933 98.753 2.047 98.753 2.047 106.086zM30.292 70.418L31.744 65.757 8.236 65.757 9.673 70.418zM32.394 64.566L32.394 60.428 30.016 60.428 29.968 60.428 10.02 60.428 10.02 60.428 9.913 60.428 9.913 60.428 7.594 60.428 7.594 64.564zM27.473 39.691L28.331 36.391 11.657 36.391 12.494 39.701zM29.032 35.19L29.032 32 10.946 32 10.946 35.2zM25.004 19.273L25.41 17.506 14.573 17.506 14.974 19.273zM26.039 16.315L26.039 14.602 13.949 14.602 13.949 16.326z" transform="translate(158 33.086)"/>
                <path fill="#FFCA59" d="M1.269 178.791L38.714 178.791 34.809 113.751 5.174 113.751 1.271 178.804zM32.798 97.562L30.292 71.612 9.697 71.612 7.201 97.562zM29.289 59.239L27.529 40.879 12.47 40.879 10.7 59.229zM26.143 30.799L25.033 20.472 14.958 20.472 13.845 30.809zM23.549 13.414L22.867 5.108 17.122 5.108 16.439 13.414z" transform="translate(158 33.086)"/>
            </g>
        </g>
    </g>
</svg>
