<svg xmlns="http://www.w3.org/2000/svg" xmlns:xlink="http://www.w3.org/1999/xlink" width="204" height="209" viewBox="0 0 204 209">
    <defs>
        <linearGradient id="prefix__b" x1="97.987%" x2="2.013%" y1="0%" y2="100%">
            <stop offset="0%" stop-color="#00AFCB"/>
            <stop offset="48.862%" stop-color="#00D8E7"/>
            <stop offset="100%" stop-color="#00AFCB"/>
        </linearGradient>
        <path id="prefix__a" d="M204 208.235V.085C136.774.086 84.01.058 45.71 0 17.598 26.03 0 63.252 0 104.586c0 40.84 17.18 77.667 44.708 103.649 35.787-.1 88.884-.1 159.292 0z"/>
    </defs>
    <g style="mix-blend-mode:luminosity" fill="none" fill-rule="evenodd">
        <mask id="prefix__c" fill="#fff">
            <use xlink:href="#prefix__a"/>
        </mask>
        <use fill="url(#prefix__b)" xlink:href="#prefix__a"/>
        <g fill="#211B3E" fill-rule="nonzero" mask="url(#prefix__c)">
            <g>
                <path d="M29 148.52v-7.061h-1.88v-3.867c0-.744 1.277-1.471 1.88-1.771v-6.32h-1.88v-3.866c0-.745 1.277-1.472 1.88-1.774v-4.454h-5.109V90.084h3.229v-6.289h-1.833v-3.283c0-.809 1.743-1.58 1.833-1.622v-4.948h-4.347V52.299h2.443v-6.522h-1.553v-2.782c0-.682 1.482-1.336 1.553-1.37v-2.843h-2.89v-13.61c.523-.866 3.766-6.844-2.637-11.947l-.391-.247c-1.38-.86-4.242-2.656-4.242-4.706V0h-.772v8.272c0 2.093-3.017 3.957-4.304 4.753l-.354.226c-6.374 5.084-3.107 11.057-2.58 11.925v13.61h-2.91v2.851c.007 0 .037-.016.037-.016v-.003l.003.003.002-.003s1.574.68 1.574 1.382v2.782H4.135v6.522h2.44v21.643H2.228v4.957c.007 0 .047-.021.047-.021h.003s1.858.803 1.858 1.633V83.8H2.224v6.29H5.11v28.937H0v4.691l.036.017v-.017s2.19.947 2.19 1.924v3.866H0v6.175l.036.014v-.014s2.19.944 2.19 1.921v3.867H0v7.447h.385c2.385 0 3.437 2.575 3.589 2.984V214h21.05l.023-62.25c.126-.328 1.275-3.23 3.953-3.23zM18.398 33.257c0-.702 1.576-1.382 1.576-1.382s1.577.68 1.577 1.382v4.132h-3.153v-4.132zm-5.268 0c0-.702 1.574-1.382 1.574-1.382s1.581.68 1.581 1.382v4.132H13.13v-4.132zm0 9.741c0-.701 1.574-1.381 1.574-1.381s1.581.68 1.581 1.381v2.782H13.13v-2.782zm-.282 37.515c0-.83 1.859-1.634 1.859-1.634s1.865.804 1.865 1.634v3.283h-3.725v-3.283zm-3.302 60.947H5.164v-3.867c0-.972 2.19-1.92 2.19-1.92s2.192.943 2.192 1.92v3.867zm0-11.958H5.164v-3.866c0-.973 2.19-1.926 2.19-1.926s2.192.948 2.192 1.926v3.866zm.804-45.706H6.628v-3.283c0-.83 1.864-1.634 1.864-1.634s1.858.804 1.858 1.634v3.283zm.663-38.016H7.862v-2.782c0-.701 1.58-1.381 1.58-1.381s1.57.68 1.57 1.381v2.782zm0-8.388h-3.15v-4.133c0-.701 1.578-1.382 1.578-1.382s1.572.68 1.572 1.382v4.133zm5.851 104.068h-4.382v-3.867c0-.972 2.191-1.92 2.191-1.92s2.191.943 2.191 1.92v3.867zm0-11.958h-4.382v-3.866c0-.973 2.191-1.926 2.191-1.926s2.191.948 2.191 1.926v3.866zm1.534-86.504c0-.701 1.576-1.381 1.576-1.381s1.577.68 1.577 1.381v2.782h-3.153v-2.782zm.67 37.515c0-.83 1.858-1.634 1.858-1.634s1.864.804 1.864 1.634v3.283h-3.723v-3.283zm5.115 60.947h-4.382v-3.867c0-.972 2.191-1.92 2.191-1.92s2.191.943 2.191 1.92v3.867zm0-11.958h-4.382v-3.866c0-.973 2.191-1.926 2.191-1.926s2.191.948 2.191 1.926v3.866zM45.022 98V80.15H47v-5.38h-1.252v-2.297c0-.563 1.193-1.103 1.252-1.132v-2.346h-2.333V57.767c.423-.715 3.033-5.645-2.123-9.856l-.32-.204c-1.112-.71-3.42-2.19-3.42-3.882V37h-.622v6.825c0 1.725-2.434 3.263-3.471 3.92l-.283.185c-5.14 4.194-2.504 9.124-2.078 9.84v11.227H30v2.351c.005 0 .03-.012.03-.012v-.002h.005s1.27.559 1.27 1.14v2.295H30v5.382h1.97V98h13.052zm-3.524-33.564c0-.578 1.27-1.14 1.27-1.14s1.27.56 1.27 1.14v3.41h-2.54v-3.41zm-4.248 0c0-.578 1.276-1.14 1.276-1.14s1.27.56 1.27 1.14v3.41H37.25v-3.41zm0 8.037c0-.578 1.276-1.14 1.276-1.14s1.27.56 1.27 1.14v2.296H37.25v-2.296zm-1.703 2.296H33.008v-2.296c0-.578 1.27-1.14 1.27-1.14s1.269.56 1.269 1.14v2.296zm0-6.924h-2.54v-3.409c0-.578 1.271-1.14 1.271-1.14s1.269.56 1.269 1.14v3.41zm5.95 4.628c0-.578 1.272-1.14 1.272-1.14s1.268.56 1.268 1.14v2.296H41.498v-2.296zM120.948 151.75l.026 62.25h21.052v-62.11c.147-.409 1.203-2.984 3.59-2.984H146v-7.447h-2.227v-3.867c0-.972 2.191-1.92 2.191-1.92v.014l.036-.015v-6.175h-2.227v-3.866c0-.973 2.191-1.924 2.191-1.924v.017l.036-.017v-4.691h-5.11V90.08h2.885v-6.29h-1.906v-3.283c0-.83 1.857-1.634 1.857-1.634h.002s.043.022.047.022v-4.958h-4.349V52.294h2.443v-6.522h-1.619V42.99c0-.701 1.574-1.381 1.574-1.381l.002.002.003-.002v.002s.03.017.04.017v-2.851h-2.913v-13.61c.527-.866 3.794-6.841-2.58-11.925l-.354-.226c-1.287-.797-4.302-2.66-4.302-4.753V0h-.772v8.272c0 2.05-2.863 3.845-4.243 4.706l-.391.247c-6.403 5.103-3.16 11.08-2.638 11.946v13.61h-2.89v2.844c.072.034 1.553.688 1.553 1.37v2.782h-1.552v6.522h2.443v21.643h-4.347v4.948c.09.043 1.833.813 1.833 1.622v3.283h-1.833v6.29h3.229v29.322h-5.11v4.454c.603.302 1.88 1.03 1.88 1.774v3.866H117v6.32c.603.3 1.88 1.027 1.88 1.771v3.867H117v7.062c2.676 0 3.825 2.9 3.948 3.229zM127.6 37.39h-3.152v-4.132c0-.701 1.576-1.382 1.576-1.382s1.576.68 1.576 1.382v4.133zm5.269 0h-3.153v-4.132c0-.701 1.581-1.382 1.581-1.382s1.572.68 1.572 1.382v4.133zm0 8.39h-3.153v-2.783c0-.701 1.581-1.381 1.581-1.381s1.572.68 1.572 1.381v2.782zm.282 38.015h-3.722v-3.283c0-.83 1.863-1.634 1.863-1.634s1.86.804 1.86 1.634v3.283zm3.3 53.797c0-.972 2.194-1.92 2.194-1.92s2.191.943 2.191 1.92v3.867h-4.385v-3.867zm0-11.957c0-.973 2.194-1.926 2.194-1.926s2.191.948 2.191 1.926v3.866h-4.385v-3.866zm-.8-45.123c0-.83 1.86-1.634 1.86-1.634s1.86.804 1.86 1.634v3.283h-3.72v-3.283zm-.665-37.515c0-.701 1.572-1.381 1.572-1.381s1.577.68 1.577 1.381v2.782h-3.149v-2.782zm0-9.741c0-.702 1.572-1.382 1.572-1.382s1.577.68 1.577 1.382v4.132h-3.149v-4.132zm-5.852 104.336c0-.972 2.192-1.92 2.192-1.92s2.19.943 2.19 1.92v3.867h-4.382v-3.867zm0-11.957c0-.973 2.192-1.926 2.192-1.926s2.19.948 2.19 1.926v3.866h-4.382v-3.866zM127.6 45.779h-3.152v-2.782c0-.701 1.576-1.381 1.576-1.381s1.576.68 1.576 1.381v2.782zm-.667 38.016h-3.722v-3.283c0-.83 1.863-1.634 1.863-1.634s1.86.804 1.86 1.634v3.283zm-5.12 53.797c0-.972 2.193-1.92 2.193-1.92s2.191.943 2.191 1.92v3.867h-4.385v-3.867zm0-11.957c0-.973 2.193-1.926 2.193-1.926s2.191.948 2.191 1.926v3.866h-4.385v-3.866z" transform="translate(42 7)"/>
                <path d="M122 118.458V99H25v19.458h4.625v-3.814c0-.976 2.163-1.93 2.163-1.93s2.162.949 2.162 1.93v3.872h-3.906v30.653h-.759c-2.017 0-2.978 2.2-3.165 2.67V214h21.715v-26.58c0-12.759 12.57-17.902 17.935-20.094.478-.197.898-.369 1.238-.517 4.058-1.786 6.227-3.22 6.321-3.28l.171-.11.171.117c.094.057 2.263 1.494 6.321 3.276.343.147.76.321 1.235.52 5.366 2.19 17.936 7.33 17.936 20.094V214h21.717v-62.16c-.187-.47-1.148-2.671-3.168-2.671h-.759v-30.653h-3.903v-3.872c0-.976 2.162-1.93 2.162-1.93s2.165.949 2.165 1.93v3.814H122zm-15.902-17.674h4.325v5.172h-4.325v-5.172zm-13.903 0h4.327v5.172h-4.327v-5.172zm-13.908 0h4.325v5.172h-4.325v-5.172zm-6.95 0h4.326v5.172h-4.326v-5.172zm0 13.86c0-.976 2.163-1.93 2.163-1.93s2.163.949 2.163 1.93v3.872h-4.326v-3.872zm-13.903-13.86h4.325v5.172h-4.325v-5.172zm-13.906 0h4.326v5.172h-4.326v-5.172zm-13.905 5.17v-5.172h4.325v5.172h-4.325zm9.42 105.075H33.532v-6.87c0-1.087 2.758-2.147 2.758-2.147s2.755 1.06 2.755 2.147v6.87zm0-18.036H33.532v-6.87c0-1.09 2.758-2.147 2.758-2.147s2.755 1.058 2.755 2.147v6.87zm0-16.914H33.532v-4.322c0-1.088 2.758-2.148 2.758-2.148s2.755 1.06 2.755 2.148v4.322zm0-14.365H33.532v-4.324c0-1.089 2.758-2.147 2.758-2.147s2.755 1.058 2.755 2.147v4.324zm1.383-18.168h-7.413v-7.685c0-1.934 3.707-3.819 3.707-3.819s3.706 1.885 3.706 3.82v7.684zm.476-25.03h-4.325v-3.872c0-.976 2.158-1.93 2.158-1.93s2.167.949 2.167 1.93v3.872zm0-12.562h-4.325v-5.172h4.325v5.172zm2.626 8.688c0-.972 2.163-1.927 2.163-1.927s2.163.95 2.163 1.927v3.874h-4.326v-3.874zm9.157 28.904h-7.413v-7.685c0-1.934 3.706-3.819 3.706-3.819s3.707 1.885 3.707 3.82v7.684zm2.12-25.03H50.48v-3.874c0-.974 2.163-1.927 2.163-1.927s2.162.948 2.162 1.927v3.874zm0-12.562H50.48v-5.172h4.325v5.172zm2.63 8.688c0-.972 2.164-1.927 2.164-1.927s2.16.95 2.16 1.927v3.874h-4.325v-3.874zm7.513 28.904h-7.413v-7.685c0-1.934 3.706-3.819 3.706-3.819s3.707 1.89 3.707 3.82v7.684zm3.765-25.03h-4.325v-3.872c0-.974 2.158-1.924 2.158-1.924s2.167.945 2.167 1.924v3.872zm0-12.562h-4.325v-5.172h4.325v5.172zm8.494 37.592h-7.414v-7.685c0-1.934 3.707-3.816 3.707-3.816s3.707 1.884 3.707 3.818v7.683zm1.08-25.03v-3.872c0-.974 2.167-1.924 2.167-1.924s2.158.945 2.158 1.924v3.872h-4.325zm11.178 25.03h-7.413v-7.685c0-1.934 3.707-3.819 3.707-3.819s3.706 1.885 3.706 3.82v7.684zm.1-25.03h-4.324v-3.874c0-.972 2.16-1.927 2.16-1.927s2.165.95 2.165 1.927v3.874zm0-12.562h-4.324v-5.172h4.325v5.172zm2.63 12.562v-3.874c0-.974 2.165-1.927 2.165-1.927s2.162.948 2.162 1.927v3.874h-4.327zm9.533 25.03h-7.413v-7.685c0-1.934 3.707-3.819 3.707-3.819s3.706 1.885 3.706 3.82v7.684zm1.741-25.03h-4.325v-3.874c0-.972 2.165-1.927 2.165-1.927s2.16.95 2.16 1.927v3.874zm0-12.562h-4.325v-5.172h4.325v5.172zm2.63 8.69c0-.976 2.166-1.93 2.166-1.93s2.158.949 2.158 1.93v3.872h-4.325v-3.872zm7.37 96.385h-5.513v-6.87c0-1.087 2.755-2.147 2.755-2.147s2.758 1.06 2.758 2.147v6.87zm0-18.036h-5.513v-6.87c0-1.09 2.755-2.147 2.755-2.147s2.758 1.058 2.758 2.147v6.87zm0-16.914h-5.513v-4.322c0-1.088 2.755-2.148 2.755-2.148s2.758 1.06 2.758 2.148v4.322zm0-14.365h-5.513v-4.324c0-1.089 2.755-2.147 2.755-2.147s2.758 1.058 2.758 2.147v4.324zm.516-25.853v7.685h-7.411v-7.685c0-1.934 3.706-3.819 3.706-3.819s3.705 1.892 3.705 3.82zm-.933-29.907v-5.172h4.325v5.172h-4.325zM114.03 98V80.15H116v-5.38h-1.305v-2.297c0-.578 1.27-1.14 1.27-1.14h.005v.003s.025.012.03.012v-2.35h-2.35V57.768c.429-.715 3.066-5.645-2.078-9.839l-.283-.184c-1.037-.655-3.468-2.196-3.468-3.92V37h-.625v6.825c0 1.692-2.305 3.172-3.42 3.882l-.322.204c-5.156 4.213-2.547 9.143-2.12 9.856v11.228H99v2.346c.056.029 1.25.566 1.25 1.132v2.296H99v5.382h1.978V98h13.051zm-9.528-30.155h-2.537v-3.409c0-.578 1.266-1.14 1.266-1.14s1.271.56 1.271 1.14v3.41zm4.248 0h-2.547v-3.409c0-.578 1.271-1.14 1.271-1.14s1.276.56 1.276 1.14v3.41zm0 6.924H106.204v-2.296c0-.578 1.27-1.14 1.27-1.14s1.276.56 1.276 1.14v2.296zm1.703-2.296c0-.578 1.271-1.14 1.271-1.14s1.271.56 1.271 1.14v2.296h-2.542v-2.296zm0-8.037c0-.578 1.271-1.14 1.271-1.14s1.271.56 1.271 1.14v3.41h-2.542v-3.41zm-5.95 10.333H101.964v-2.296c0-.578 1.266-1.14 1.266-1.14s1.271.56 1.271 1.14v2.296z" transform="translate(42 7)"/>
            </g>
        </g>
        <g fill="#FFCA59" fill-rule="nonzero" mask="url(#prefix__c)">
            <g>
                <path d="M22 113.82v-5.412h-1.426v-2.963c0-.57.969-1.128 1.426-1.358v-4.843h-1.426V96.28c0-.57.969-1.128 1.426-1.36v-3.413h-3.876V69.037h2.45v-4.82h-1.39V61.7c0-.62 1.321-1.21 1.39-1.242v-3.792h-3.298V40.08h1.853V35.08h-1.177V32.95c0-.523 1.123-1.024 1.177-1.05V29.72h-2.191V19.29c.396-.663 2.856-5.244-2.001-9.155l-.297-.19C13.593 9.287 11.42 7.91 11.42 6.34V0h-.585v6.34c0 1.603-2.289 3.032-3.265 3.642l-.268.173c-4.836 3.896-2.358 8.474-1.958 9.139v10.43H3.137v2.185c.006 0 .029-.013.029-.013v-.002l.002.002.002-.002s1.194.522 1.194 1.06v2.131H3.137v4.998H4.99V56.67h-3.3v3.8c.006 0 .036-.017.036-.017h.002s1.41.616 1.41 1.252v2.517h-1.45v4.82h2.189v22.176H0v3.595l.027.013v-.013s1.662.725 1.662 1.474v2.963H0v4.732l.027.011v-.01s1.662.723 1.662 1.472v2.963H0v5.707h.292c1.81 0 2.607 1.973 2.723 2.287V164h15.968l.018-47.706c.096-.251.968-2.474 2.999-2.474zm-8.043-88.334c0-.538 1.196-1.06 1.196-1.06s1.196.522 1.196 1.06v3.167h-2.392v-3.167zm-3.996 0c0-.538 1.194-1.06 1.194-1.06s1.2.522 1.2 1.06v3.167H9.96v-3.167zm0 7.465c0-.537 1.194-1.058 1.194-1.058s1.2.52 1.2 1.058v2.132H9.96v-2.132zm-.214 28.75c0-.637 1.41-1.252 1.41-1.252s1.415.615 1.415 1.251v2.517H9.747V61.7zM7.24 108.407H3.917v-2.963c0-.746 1.662-1.473 1.662-1.473s1.662.724 1.662 1.473v2.963zm0-9.164H3.917V96.28c0-.746 1.662-1.476 1.662-1.476s1.662.727 1.662 1.476v2.963zm.611-35.027H5.028V61.7c0-.636 1.414-1.251 1.414-1.251s1.41.615 1.41 1.251v2.517zm.502-29.134H5.965v-2.132c0-.537 1.197-1.058 1.197-1.058s1.192.52 1.192 1.058v2.132zm0-6.429h-2.39v-3.167c0-.537 1.198-1.058 1.198-1.058s1.192.52 1.192 1.058v3.167zm4.44 79.754H9.469v-2.963c0-.746 1.662-1.473 1.662-1.473s1.663.724 1.663 1.473v2.963zm0-9.164H9.469V96.28c0-.746 1.662-1.476 1.662-1.476s1.663.727 1.663 1.476v2.963zm1.163-66.293c0-.537 1.196-1.058 1.196-1.058s1.196.52 1.196 1.058v2.132h-2.392v-2.132zm.508 28.75c0-.637 1.41-1.252 1.41-1.252s1.414.615 1.414 1.251v2.517h-2.824V61.7zm3.88 46.707h-3.324v-2.963c0-.746 1.663-1.473 1.663-1.473s1.662.724 1.662 1.473v2.963zm0-9.164h-3.324V96.28c0-.746 1.663-1.476 1.663-1.476s1.662.727 1.662 1.476v2.963zM34.488 75V61.54H36v-4.058h-.957V55.75c0-.425.912-.832.957-.854v-1.769h-1.784V44.66c.324-.539 2.32-4.257-1.623-7.432l-.246-.154c-.85-.535-2.614-1.651-2.614-2.927V29h-.476v5.147c0 1.3-1.862 2.46-2.654 2.956l-.217.14c-3.93 3.162-1.915 6.88-1.59 7.419v8.467H23v1.773c.004 0 .023-.01.023-.01h.004s.972.42.972.858v1.732H23v4.058h1.507V75h9.98zm-2.695-25.31c0-.436.971-.86.971-.86s.97.422.97.86v2.57h-1.941v-2.57zm-3.249 0c0-.436.976-.86.976-.86s.971.422.971.86v2.57h-1.947v-2.57zm0 6.06c0-.436.976-.859.976-.859s.971.422.971.86v1.73h-1.947v-1.73zm-1.303 1.732H25.3V55.75c0-.436.971-.859.971-.859s.97.422.97.86v1.73zm0-5.221H25.3V49.69c0-.436.971-.86.971-.86s.97.422.97.86v2.57zm4.552 3.49c0-.437.971-.86.971-.86s.97.422.97.86v1.73H31.793v-1.73zM93.995 116.294l.02 47.706h15.97v-47.598c.112-.314.913-2.287 2.723-2.287H113v-5.707H111.311v-2.963c0-.746 1.662-1.473 1.662-1.473v.011l.027-.01V99.24H111.311v-2.963c0-.745 1.662-1.474 1.662-1.474v.013l.027-.013v-3.595h-3.876V69.033h2.188v-4.82h-1.446v-2.516c0-.636 1.409-1.252 1.409-1.252h.001s.033.016.036.016v-3.799h-3.3V40.076h1.854v-4.998h-1.228v-2.132c0-.538 1.194-1.059 1.194-1.059l.002.002.002-.002v.002s.023.013.03.013v-2.185h-2.21v-10.43c.4-.664 2.878-5.243-1.958-9.139l-.268-.173c-.976-.61-3.263-2.04-3.263-3.643V0h-.586v6.34c0 1.57-2.172 2.946-3.218 3.606l-.297.19c-4.858 3.91-2.398 8.49-2.001 9.154v10.43h-2.192v2.18c.054.025 1.178.526 1.178 1.05v2.131h-1.178v4.999h1.853v16.586h-3.298v3.792c.069.032 1.39.623 1.39 1.242v2.517h-1.39v4.82h2.45v22.471h-3.876v3.413c.457.232 1.426.79 1.426 1.36v2.963H91v4.843c.457.23 1.426.787 1.426 1.358v2.963H91v5.412c2.03 0 2.902 2.223 2.995 2.474zm5.047-87.64H96.65v-3.167c0-.537 1.196-1.058 1.196-1.058s1.196.52 1.196 1.058v3.167zm3.996 0h-2.391v-3.167c0-.537 1.199-1.058 1.199-1.058s1.192.52 1.192 1.058v3.167zm0 6.43h-2.392V32.95c0-.537 1.2-1.058 1.2-1.058s1.192.52 1.192 1.058v2.132zm.215 29.133h-2.824V61.7c0-.636 1.413-1.251 1.413-1.251s1.41.615 1.41 1.251v2.517zm2.503 41.228c0-.746 1.664-1.473 1.664-1.473s1.663.724 1.663 1.473v2.963h-3.327v-2.963zm0-9.164c0-.746 1.664-1.476 1.664-1.476s1.663.727 1.663 1.476v2.963h-3.327V96.28zm-.607-34.58c0-.637 1.41-1.252 1.41-1.252s1.412.615 1.412 1.251v2.517h-2.822V61.7zm-.504-28.75c0-.537 1.192-1.058 1.192-1.058s1.196.52 1.196 1.058v2.132h-2.388v-2.132zm0-7.465c0-.538 1.192-1.06 1.192-1.06s1.196.522 1.196 1.06v3.167h-2.388v-3.167zm-4.44 79.959c0-.746 1.663-1.473 1.663-1.473s1.662.724 1.662 1.473v2.963h-3.325v-2.963zm0-9.164c0-.746 1.663-1.476 1.663-1.476s1.662.727 1.662 1.476v2.963h-3.325V96.28zm-1.163-61.198H96.65v-2.132c0-.537 1.196-1.058 1.196-1.058s1.196.52 1.196 1.058v2.132zm-.506 29.134h-2.824V61.7c0-.636 1.413-1.251 1.413-1.251s1.41.615 1.41 1.251v2.517zm-3.885 41.228c0-.746 1.664-1.473 1.664-1.473s1.662.724 1.662 1.473v2.963H94.651v-2.963zm0-9.164c0-.746 1.664-1.476 1.664-1.476s1.662.727 1.662 1.476v2.963H94.651V96.28z" transform="translate(58 45)"/>
                <path d="M95 90.89V76H19v14.89h3.624v-2.919c0-.747 1.694-1.476 1.694-1.476s1.695.725 1.695 1.476v2.963h-3.06v23.456h-.595c-1.581 0-2.334 1.684-2.48 2.043V164H36.89v-20.339c0-9.764 9.849-13.7 14.053-15.377.374-.15.703-.282.97-.395 3.179-1.367 4.879-2.465 4.952-2.51l.134-.084.134.09c.073.043 1.773 1.142 4.953 2.506.268.113.595.246.967.397 4.204 1.677 14.053 5.61 14.053 15.377V164h17.016v-47.567c-.147-.359-.9-2.043-2.482-2.043h-.595V90.934h-3.059V87.97c0-.747 1.695-1.476 1.695-1.476s1.696.725 1.696 1.476v2.919H95zM82.54 77.365h3.39v3.958h-3.39v-3.958zm-10.893 0h3.391v3.958h-3.39v-3.958zm-10.897 0h3.39v3.958h-3.39v-3.958zm-5.444 0h3.388v3.958h-3.388v-3.958zm0 10.606c0-.747 1.694-1.476 1.694-1.476s1.694.725 1.694 1.476v2.963h-3.388V87.97zM44.412 77.365h3.39v3.958h-3.39v-3.958zm-10.895 0h3.389v3.958h-3.389v-3.958zm-10.895 3.956v-3.957h3.389v3.957h-3.39zm7.381 80.406h-4.319v-5.258c0-.83 2.16-1.642 2.16-1.642s2.16.811 2.16 1.642v5.258zm0-13.802h-4.319v-5.257c0-.833 2.16-1.643 2.16-1.643s2.16.81 2.16 1.643v5.257zm0-12.943h-4.319v-3.307c0-.833 2.16-1.644 2.16-1.644s2.16.811 2.16 1.644v3.307zm0-10.992h-4.319v-3.31c0-.832 2.16-1.642 2.16-1.642s2.16.81 2.16 1.643v3.309zm1.084-13.902h-5.809v-5.881c0-1.48 2.904-2.922 2.904-2.922s2.905 1.441 2.905 2.922v5.88zm.372-19.154H28.07V87.97c0-.747 1.691-1.476 1.691-1.476s1.698.725 1.698 1.476v2.963zm0-9.613H28.07v-3.957h3.39v3.957zm2.058 6.649c0-.744 1.694-1.475 1.694-1.475s1.695.727 1.695 1.475v2.964h-3.389V87.97zm7.174 22.118h-5.808v-5.881c0-1.48 2.904-2.922 2.904-2.922s2.904 1.441 2.904 2.922v5.88zm1.662-19.154h-3.39V87.97c0-.746 1.695-1.475 1.695-1.475s1.695.725 1.695 1.475v2.964zm0-9.613h-3.39v-3.957h3.39v3.957zm2.06 6.649c0-.744 1.696-1.475 1.696-1.475s1.692.727 1.692 1.475v2.964h-3.389V87.97zm5.887 22.118H44.49v-5.881c0-1.48 2.904-2.922 2.904-2.922s2.905 1.445 2.905 2.922v5.88zm2.95-19.154h-3.39V87.97c0-.745 1.691-1.473 1.691-1.473s1.699.724 1.699 1.473v2.963zm0-9.613h-3.39v-3.957h3.39v3.957zm6.654 28.767h-5.808v-5.881c0-1.48 2.904-2.92 2.904-2.92s2.904 1.441 2.904 2.922v5.879zm.846-19.154V87.97c0-.745 1.699-1.473 1.699-1.473s1.69.724 1.69 1.473v2.963H60.75zm8.759 19.154H63.7v-5.881c0-1.48 2.905-2.922 2.905-2.922s2.904 1.441 2.904 2.922v5.88zm.079-19.154h-3.39V87.97c0-.744 1.693-1.475 1.693-1.475s1.697.727 1.697 1.475v2.964zm0-9.613h-3.39v-3.957h3.39v3.957zm2.06 9.613V87.97c0-.746 1.696-1.475 1.696-1.475s1.694.725 1.694 1.475v2.964h-3.39zm7.47 19.154h-5.81v-5.881c0-1.48 2.905-2.922 2.905-2.922s2.904 1.441 2.904 2.922v5.88zm1.363-19.154h-3.389V87.97c0-.744 1.697-1.475 1.697-1.475s1.692.727 1.692 1.475v2.964zm0-9.613h-3.389v-3.957h3.39v3.957zm2.06 6.65c0-.747 1.698-1.476 1.698-1.476s1.69.725 1.69 1.476v2.963h-3.388V87.97zm5.775 73.756h-4.32v-5.258c0-.83 2.16-1.642 2.16-1.642s2.16.811 2.16 1.642v5.258zm0-13.802h-4.32v-5.257c0-.833 2.16-1.643 2.16-1.643s2.16.81 2.16 1.643v5.257zm0-12.943h-4.32v-3.307c0-.833 2.16-1.644 2.16-1.644s2.16.811 2.16 1.644v3.307zm0-10.992h-4.32v-3.31c0-.832 2.16-1.642 2.16-1.642s2.16.81 2.16 1.643v3.309zm.404-19.783v5.88h-5.807v-5.88c0-1.48 2.905-2.922 2.905-2.922s2.902 1.447 2.902 2.922zm-.73-22.886v-3.957h3.388v3.957H87.99zM88.493 75V61.54H90v-4.058h-.999V55.75c0-.436.972-.859.972-.859h.004v.002s.02.009.023.009v-1.773h-1.797v-8.467c.328-.54 2.345-4.257-1.589-7.42l-.217-.139c-.792-.494-2.652-1.655-2.652-2.956V29h-.478v5.147c0 1.276-1.762 2.392-2.614 2.927l-.247.154c-3.943 3.177-1.947 6.895-1.622 7.432v8.467H77v1.77c.043.021.956.426.956.853v1.732H77v4.058h1.512V75h9.981zm-7.286-22.74h-1.94v-2.57c0-.436.969-.86.969-.86s.971.422.971.86v2.57zm3.249 0h-1.947v-2.57c0-.436.971-.86.971-.86s.976.422.976.86v2.57zm0 5.222h-1.947V55.75c0-.436.971-.859.971-.859s.976.422.976.86v1.73zm1.303-1.732c0-.436.971-.859.971-.859s.972.422.972.86v1.73H85.76v-1.73zm0-6.06c0-.436.971-.86.971-.86s.972.422.972.86v2.57H85.76v-2.57zm-4.552 7.792h-1.94V55.75c0-.436.969-.859.969-.859s.971.422.971.86v1.73z" transform="translate(58 45)"/>
            </g>
        </g>
    </g>
</svg>
